<svg xmlns="http://www.w3.org/2000/svg" xmlns:xlink="http://www.w3.org/1999/xlink" version="1.1" x="0px" y="0px" viewBox="0 0 32 40" enable-background="new 0 0 32 32" xml:space="preserve"><g><path d="M24.802,9.736H7.794c-1.086,0-2.003,0.904-2.003,1.974v9.241c0,1.069,0.917,1.974,2.003,1.974h17.008   c1.085,0,2.002-0.904,2.002-1.974V11.71C26.804,10.64,25.887,9.736,24.802,9.736z M25.804,20.951c0,0.527-0.459,0.974-1.002,0.974   H7.794c-0.544,0-1.003-0.446-1.003-0.974V11.71c0-0.528,0.459-0.974,1.003-0.974h17.008c0.543,0,1.002,0.446,1.002,0.974V20.951z"/><path d="M25.155,11.189c-0.178-0.211-0.494-0.236-0.705-0.059l-8.152,6.898L8.146,11.13c-0.21-0.177-0.526-0.152-0.705,0.059   c-0.179,0.21-0.152,0.526,0.059,0.705l5.232,4.427l-5.233,4.448c-0.21,0.179-0.235,0.494-0.057,0.705   c0.099,0.116,0.239,0.176,0.381,0.176c0.114,0,0.229-0.039,0.324-0.119l5.358-4.555l2.47,2.09c0.094,0.079,0.208,0.118,0.323,0.118   s0.229-0.039,0.323-0.118l2.439-2.064l5.362,4.53c0.094,0.079,0.208,0.118,0.322,0.118c0.142,0,0.283-0.061,0.382-0.178   c0.179-0.211,0.151-0.526-0.06-0.704l-5.233-4.421l5.263-4.453C25.308,11.715,25.334,11.399,25.155,11.189z"/></g><text x="0" y="47" fill="#000000" font-size="5px" font-weight="bold" font-family="'Helvetica Neue', Helvetica, Arial-Unicode, Arial, Sans-serif">Created by Ongky ahmad fauzy</text><text x="0" y="52" fill="#000000" font-size="5px" font-weight="bold" font-family="'Helvetica Neue', Helvetica, Arial-Unicode, Arial, Sans-serif">from the Noun Project</text></svg>